HIERARCHY
ROOT Hips
{
	OFFSET -0.001795 -0.223333 0.028219
	CHANNELS 6 Xposition Yposition Zposition Zrotation Yrotation Xrotation 
	JOINT LeftUpLeg
	{
		OFFSET 0.069520 -0.091406 -0.006815
		CHANNELS 3 Zrotation Yrotation Xrotation
		JOINT LeftLeg
		{
			OFFSET 0.034277 -0.375199 -0.004496
			CHANNELS 3 Zrotation Yrotation Xrotation
			JOINT LeftFoot
			{
				OFFSET -0.013596 -0.397961 -0.043693
				CHANNELS 3 Zrotation Yrotation Xrotation
				JOINT LeftToe
				{
					OFFSET 0.026358 -0.055791 0.119288
					CHANNELS 3 Zrotation Yrotation Xrotation
					End Site
					{
						OFFSET 0.000000 0.000000 0.000000
					}
				}
			}
		}
	}
	JOINT RightUpLeg
	{
		OFFSET -0.067670 -0.090522 -0.004320
		CHANNELS 3 Zrotation Yrotation Xrotation
		JOINT RightLeg
		{
			OFFSET -0.038290 -0.382569 -0.008850
			CHANNELS 3 Zrotation Yrotation Xrotation
			JOINT RightFoot
			{
				OFFSET 0.015774 -0.398415 -0.042312
				CHANNELS 3 Zrotation Yrotation Xrotation
				JOINT RightToe
				{
					OFFSET -0.025372 -0.048144 0.123348
					CHANNELS 3 Zrotation Yrotation Xrotation
					End Site
					{
						OFFSET 0.000000 0.000000 0.000000
					}
				}
			}
		}
	}
	JOINT Spine
	{
		OFFSET -0.002533 0.108963 -0.026696
		CHANNELS 3 Zrotation Yrotation Xrotation
		JOINT Spine1
		{
			OFFSET 0.005487 0.135180 0.001092
			CHANNELS 3 Zrotation Yrotation Xrotation
			JOINT Spine2
			{
				OFFSET 0.001457 0.052922 0.025425
				CHANNELS 3 Zrotation Yrotation Xrotation
				JOINT Neck
				{
					OFFSET -0.002778 0.213870 -0.042857
					CHANNELS 3 Zrotation Yrotation Xrotation
					JOINT Head
					{
						OFFSET 0.005152 0.064970 0.051349
						CHANNELS 3 Zrotation Yrotation Xrotation
						End Site
						{
							OFFSET 0.000000 0.000000 0.000000
						}
					}
				}
				JOINT LeftShoulder
				{
					OFFSET 0.078845 0.121749 -0.034090
					CHANNELS 3 Zrotation Yrotation Xrotation
					JOINT LeftArm
					{
						OFFSET 0.090977 0.030469 -0.008868
						CHANNELS 3 Zrotation Yrotation Xrotation
						JOINT LeftForeArm
						{
							OFFSET 0.259612 -0.012772 -0.027456
							CHANNELS 3 Zrotation Yrotation Xrotation
							JOINT LeftHand
							{
								OFFSET 0.249234 0.008986 -0.001171
								CHANNELS 3 Zrotation Yrotation Xrotation
								End Site
								{
									OFFSET 0.000000 0.000000 0.000000
								}
							}
						}
					}
				}
				JOINT RightShoulder
				{
					OFFSET -0.081759 0.118833 -0.038615
					CHANNELS 3 Zrotation Yrotation Xrotation
					JOINT RightArm
					{
						OFFSET -0.096012 0.032551 -0.009143
						CHANNELS 3 Zrotation Yrotation Xrotation
						JOINT RightForeArm
						{
							OFFSET -0.253742 -0.013329 -0.021401
							CHANNELS 3 Zrotation Yrotation Xrotation
							JOINT RightHand
							{
								OFFSET -0.255298 0.007772 -0.005559
								CHANNELS 3 Zrotation Yrotation Xrotation
								End Site
								{
									OFFSET 0.000000 0.000000 0.000000
								}
							}
						}
					}
				}
			}
		}
	}
}
MOTION
Frames: 10
Frame Time: 0.050000
0.000000 0.942668 0.000000 -0.497498 -4.163343 9.099443 5.678423 -0.342416 -4.548440 -0.294227 0.247745 -6.546625 2.497436 7.806866 10.181684 0.000000 0.000000 0.000000 -3.318026 0.655859 -6.707554 -1.712890 -0.117982 -5.227222 1.139905 -2.714719 10.471110 0.000000 0.000000 0.000000 5.517315 0.364339 -6.185090 -2.565940 1.144249 -5.479043 -3.773822 5.141049 4.626392 5.995832 -2.776438 -11.706224 0.000000 0.000000 0.000000 -14.267648 3.833118 -3.802792 -55.457400 -5.757094 -3.906681 -9.110001 -14.951086 1.643223 0.000000 0.000000 0.000000 12.820307 -11.153148 -5.986940 63.213185 1.971784 -4.713727 9.426340 18.412390 2.084730 0.000000 0.000000 0.000000 
-0.000052 0.942438 0.000490 -0.830068 -5.352843 9.844051 5.739084 -0.324970 -4.210730 0.013891 0.265645 -7.381486 3.107551 8.697667 10.031289 0.000000 0.000000 0.000000 -3.241469 0.783095 -8.223218 -1.733628 -0.077575 -4.403409 2.017171 -1.362263 10.972889 0.000000 0.000000 0.000000 6.829966 0.426172 -6.560240 -3.239511 1.403041 -5.509088 -4.455749 5.970816 3.530049 6.088821 -2.832077 -11.435627 0.000000 0.000000 0.000000 -15.265612 4.652927 -4.464959 -54.606940 -5.630084 -3.767599 -9.658132 -14.907162 1.688869 0.000000 0.000000 0.000000 12.461782 -12.408437 -6.502248 64.035980 0.620568 -5.327371 10.335106 19.166832 2.325491 0.000000 0.000000 0.000000 
-0.000041 0.942103 0.000649 -0.465659 -5.188397 9.351565 5.517594 -0.317009 -4.064610 -0.111027 0.216496 -5.952109 2.956726 8.227260 8.785403 0.000000 0.000000 0.000000 -3.358716 0.768153 -8.115771 -1.855502 -0.050322 -4.029510 1.596257 -1.741441 10.036085 0.000000 0.000000 0.000000 6.527119 0.348989 -5.818283 -2.898330 1.249141 -6.624707 -4.788971 5.606585 3.970525 5.642472 -2.671273 -10.760681 0.000000 0.000000 0.000000 -15.396210 3.688097 -3.973854 -54.591279 -5.439354 -3.896619 -9.197626 -14.290043 1.573593 0.000000 0.000000 0.000000 13.439446 -11.399675 -6.209635 63.352488 0.568997 -5.424159 10.147676 20.077333 2.421149 0.000000 0.000000 0.000000 
-0.000122 0.941867 0.000826 -0.493297 -5.310590 9.939965 5.983906 -0.328920 -4.358756 -0.696668 0.271899 -6.497426 3.110533 8.541457 9.109452 0.000000 0.000000 0.000000 -3.609261 0.831710 -8.925110 -1.562359 -0.083695 -4.343209 1.850177 -1.555154 10.703090 0.000000 0.000000 0.000000 6.763639 0.379480 -6.177256 -3.173720 1.368468 -5.925793 -4.694483 5.047276 2.269421 5.335544 -2.606591 -9.903169 0.000000 0.000000 0.000000 -15.476439 4.443226 -4.288102 -55.049835 -6.180867 -3.422953 -8.354659 -13.288675 1.368891 0.000000 0.000000 0.000000 12.142984 -11.690089 -6.208399 63.916954 0.153369 -5.519248 11.801532 20.486116 2.705353 0.000000 0.000000 0.000000 
-0.000214 0.941931 0.000945 -0.336641 -5.217466 9.784284 5.536517 -0.325899 -4.130144 -0.400645 0.254209 -6.496537 3.201024 8.734455 9.238607 0.000000 0.000000 0.000000 -3.605148 0.819812 -8.794003 -1.785292 -0.089581 -4.697546 1.702943 -1.861952 10.755296 0.000000 0.000000 0.000000 6.585090 0.365919 -6.058308 -2.979852 1.295556 -5.647467 -4.787073 4.823693 1.954598 4.814191 -2.204331 -10.290098 0.000000 0.000000 0.000000 -15.673187 3.900546 -4.048181 -54.933417 -6.757223 -3.114147 -8.801877 -12.647380 1.350771 0.000000 0.000000 0.000000 11.744849 -11.545040 -6.083677 64.230126 0.279509 -5.449723 12.066250 20.682468 2.769924 0.000000 0.000000 0.000000 
-0.000326 0.941926 0.001102 -0.243275 -5.243977 10.041079 5.472228 -0.329480 -4.109782 -0.512311 0.269766 -6.751916 3.501245 9.244167 9.185798 0.000000 0.000000 0.000000 -3.663163 0.827079 -8.870714 -1.924873 -0.111225 -5.240294 1.906200 -1.651569 11.166169 0.000000 0.000000 0.000000 6.598406 0.391926 -6.347777 -3.018472 1.309851 -5.687827 -4.828131 4.647041 1.721866 4.742596 -2.234509 -9.805097 0.000000 0.000000 0.000000 -15.988640 3.839845 -4.050061 -54.788382 -7.324802 -2.811826 -8.618922 -12.077967 1.272641 0.000000 0.000000 0.000000 11.170151 -11.367358 -5.917547 64.824128 -0.062198 -5.665359 12.355332 21.094404 2.869378 0.000000 0.000000 0.000000 
-0.000456 0.941870 0.001179 -0.226139 -4.896967 10.086940 5.342812 -0.339599 -4.205334 -0.317004 0.260222 -6.813933 3.607102 9.563294 9.823127 0.000000 0.000000 0.000000 -3.441133 0.822145 -8.787011 -2.272995 -0.108003 -5.489557 1.987331 -1.522728 11.333042 0.000000 0.000000 0.000000 6.635715 0.398064 -6.441293 -3.014949 1.316130 -5.461292 -4.793387 4.299963 1.314248 4.797953 -2.215346 -10.211332 0.000000 0.000000 0.000000 -16.191061 3.548162 -3.926313 -54.887889 -7.483932 -2.698118 -8.454764 -11.561713 1.202050 0.000000 0.000000 0.000000 10.932301 -11.265347 -5.846095 64.924764 -0.226148 -5.732961 12.361275 21.242253 2.879816 0.000000 0.000000 0.000000 
-0.000582 0.941948 0.001173 -0.379894 -4.675206 10.225744 5.210890 -0.356681 -4.469441 -0.042402 0.234053 -6.540089 3.918269 10.041024 9.358062 0.000000 0.000000 0.000000 -3.140890 0.837197 -8.921500 -2.488711 -0.102387 -5.566878 2.111347 -1.208353 11.245517 0.000000 0.000000 0.000000 6.688353 0.387523 -6.382038 -2.874063 1.258730 -5.567500 -4.824860 4.353612 0.977730 4.822653 -2.239168 -10.029815 0.000000 0.000000 0.000000 -16.183518 3.174799 -3.787518 -54.959731 -7.704732 -2.561303 -8.587888 -11.018356 1.152183 0.000000 0.000000 0.000000 10.994469 -11.318651 -5.866212 65.031049 -0.508272 -5.841263 12.295262 20.922352 2.823050 0.000000 0.000000 0.000000 
-0.000774 0.942056 0.001132 -0.474483 -4.346156 10.211743 5.234606 -0.367288 -4.653422 -0.065107 0.229174 -6.392628 4.005705 10.225923 9.402006 0.000000 0.000000 0.000000 -2.906161 0.820210 -8.679656 -2.548503 -0.123847 -5.996171 2.237759 -1.001556 11.435108 0.000000 0.000000 0.000000 6.704794 0.369966 -6.244142 -2.797783 1.229784 -5.685731 -4.643594 4.280867 0.814677 4.934930 -2.252742 -10.393335 0.000000 0.000000 0.000000 -16.020148 3.099399 -3.738005 -55.224618 -7.946400 -2.449953 -8.925757 -10.634680 1.139477 0.000000 0.000000 0.000000 11.022185 -11.278834 -5.848650 64.831725 -0.693316 -5.899818 11.997353 20.398537 2.692641 0.000000 0.000000 0.000000 
-0.000972 0.942446 0.001105 -0.549622 -4.145493 10.184279 5.102444 -0.376678 -4.783788 -0.033955 0.221370 -6.242479 4.185219 10.547258 9.375323 0.000000 0.000000 0.000000 -2.757999 0.818529 -8.644016 -2.598546 -0.138072 -6.284603 2.433603 -0.754156 11.789328 0.000000 0.000000 0.000000 6.780214 0.358204 -6.138558 -2.795827 1.231246 -5.697842 -4.616235 4.491712 0.619864 5.029561 -2.215810 -10.896155 0.000000 0.000000 0.000000 -15.756504 2.824464 -3.622151 -55.374164 -8.184165 -2.331016 -9.121124 -10.258679 1.109616 0.000000 0.000000 0.000000 10.994407 -11.253443 -5.802337 64.642346 -1.059545 -6.026375 11.955713 19.955168 2.629188 0.000000 0.000000 0.000000 
